<?xml version="1.0" encoding="UTF-8" standalone="no"?>
<!DOCTYPE svg PUBLIC "-//W3C//DTD SVG 1.1//EN" "http://www.w3.org/Graphics/SVG/1.1/DTD/svg11.dtd">
<svg width="100%" height="100%" viewBox="0 0 4000 3000" version="1.1" xmlns="http://www.w3.org/2000/svg" xmlns:xlink="http://www.w3.org/1999/xlink" xml:space="preserve" xmlns:serif="http://www.serif.com/" style="fill-rule:evenodd;clip-rule:evenodd;stroke-linejoin:round;stroke-miterlimit:2;">
    <rect id="Coding-For-Kids-2" serif:id="Coding For Kids 2" x="0" y="0" width="4000" height="3000" style="fill:none;"/>
    <g id="Coding-For-Kids-21" serif:id="Coding For Kids 2">
        <rect x="0" y="0" width="4000" height="3000" style="fill:white;"/>
        <g id="Back">
            <path d="M636.15,2542.33l2761.15,0c-0,0 227.987,-325.297 62.83,-636.046c-149.123,-280.579 -254.492,-158.881 -436.412,-406.286c-146.155,-198.767 58.555,-524.13 -178.18,-680.1c-258.017,-169.99 -411.856,10.587 -640.311,0c-172.398,-7.988 -233.993,-181.395 -353.793,-325.915c-204.475,-246.67 -766.679,-125.403 -854.892,249.218c-54.628,231.992 51.091,571.494 -220.227,756.797c-451.964,308.678 -414.082,814.841 -140.165,1042.33Z" style="fill:url(#_Linear1);"/>
            <path d="M471.173,2307.24c1.345,3.593 2.73,7.188 4.149,10.765c14.566,2.309 30.017,3.373 46.033,3.68c41.157,0.789 86.073,-3.297 128.772,-3.036c41.771,0.256 81.405,4.612 112.996,22.4c60.236,33.92 71.356,96.962 87.336,156.556c4.099,15.287 8.492,30.358 13.981,44.728l10.708,0c-6.04,-15.12 -10.685,-31.112 -15.031,-47.318c-16.663,-62.142 -29.275,-127.309 -92.088,-162.679c-32.962,-18.561 -74.255,-23.42 -117.841,-23.687c-42.656,-0.26 -87.526,3.826 -128.641,3.038c-17.661,-0.338 -34.626,-1.548 -50.374,-4.447Zm313.609,-813.159c-2.758,1.974 -5.591,3.956 -8.467,5.92l-1.269,0.868c4.326,101.103 47.626,218.09 128.553,270.678c61.173,39.751 137.167,35.765 211.785,34.76c72.28,-0.973 143.284,0.861 196.99,52.256c21.945,21.001 33.455,50.443 40.026,84.741c6.742,35.183 8.24,75.423 9.866,117.182c3.31,84.994 7.334,176.118 54.887,244.736c38.955,56.212 94.233,73.121 151.305,85.707c55.059,12.142 111.807,20.103 155.77,58.599c23.157,20.276 41.835,55.282 61.208,92.805l11.069,0c-20.962,-40.372 -40.886,-78.61 -65.689,-100.329c-45.269,-39.638 -103.511,-48.338 -160.205,-60.841c-54.681,-12.059 -107.916,-27.779 -145.239,-81.637c-55.923,-80.696 -49.645,-193.313 -55.375,-289.002c-3.94,-65.797 -13.656,-123.727 -50.71,-159.186c-55.689,-53.293 -129.088,-56.039 -204.038,-55.03c-72.612,0.978 -146.673,5.537 -206.201,-33.146c-80.183,-52.105 -121.779,-169.583 -124.266,-269.081Zm2300.84,79.873c-46.552,23.252 -88.361,58.22 -122.272,97.731c-29.114,33.922 -41.087,76.714 -44.071,123.46c-2.932,45.918 2.804,95.676 8.998,144.35c7.327,57.585 15.332,113.629 9.784,159.759c-3.58,29.769 -12.814,55.333 -32.035,74.164c-114.303,111.979 -236.398,123.402 -353.913,125.565c-119.764,2.204 -234.845,-4.83 -332.942,70.755c-56.354,43.423 -77.148,110.255 -100.099,172.595l10.63,0c21.731,-59.7 41.812,-123.249 95.573,-164.673c96.304,-74.205 209.447,-66.515 327.022,-68.679c119.823,-2.205 244.179,-14.241 360.727,-128.42c20.797,-20.374 31.092,-47.903 34.966,-80.113c5.632,-46.837 -2.353,-103.748 -9.793,-162.215c-6.112,-48.035 -11.832,-97.136 -8.939,-142.451c2.841,-44.486 13.974,-85.302 41.68,-117.584c33.763,-39.338 75.527,-74.149 122.069,-96.775c-2.445,-2.425 -4.908,-4.916 -7.385,-7.469Zm432.949,534.726c-58.184,23.775 -86.273,65.178 -107.218,113.696c-27.747,64.27 -42.368,141.544 -100.699,205.862c-36.393,40.127 -80.272,48.952 -125.405,54.105c-46.976,5.364 -95.308,6.878 -138.786,32.485c-14.738,8.68 -27.419,17.884 -38.503,27.505l15.741,0c8.355,-6.537 17.577,-12.846 27.837,-18.888c42.216,-24.864 89.232,-25.958 134.846,-31.166c47.457,-5.419 93.41,-15.129 131.677,-57.323c47.478,-52.351 66.721,-113.024 86.927,-168.703c17.666,-48.681 35.992,-93.5 76.196,-124.711c10.94,-8.493 23.497,-15.966 38.092,-22.242c-0.2,-3.529 -0.435,-7.07 -0.705,-10.62Zm-2521,-1369.74c-0.351,1.424 -0.693,2.844 -1.028,4.267c-1.213,5.15 -2.347,10.354 -3.412,15.633c4.223,12.379 9.231,23.755 14.978,34.265c23.093,42.233 58.114,70.592 102.33,93.241c43.48,22.272 95.926,39.025 154.538,58.381c46.957,15.506 92.981,28.826 124.893,69.565c30.597,39.06 47.503,87.931 67.507,134.746c20.531,48.048 44.296,93.929 88.086,125.737c49.74,36.13 108.277,44.165 163.304,57.918c53.18,13.292 103.034,32.086 137.301,89.778c40.691,68.509 29.392,150.987 30.204,221.651c0.508,44.106 5.709,83.732 29.273,113.254c15.85,19.859 39.989,35.286 76.826,44.291c60.201,14.716 105.134,11.001 140.707,-4.2c35.63,-15.227 61.952,-42.043 84.726,-74c44.195,-62.016 74.744,-143.773 137.815,-193.674c38.878,-30.761 85.752,-44.073 129.189,-62.3c44.9,-18.841 86.184,-42.794 112.363,-94.49c24.53,-48.438 30.08,-105.976 39.821,-161.534c9.471,-54.021 22.918,-106.182 63.514,-145.471c45.641,-44.171 105.291,-54.929 167.116,-60.712c34.202,-3.2 69.073,-4.879 102.759,-9.484c-0.632,-3.273 -1.302,-6.513 -2.016,-9.736c-33.32,4.52 -67.837,6.097 -101.675,9.263c-64.122,5.998 -125.801,17.671 -173.138,63.484c-42.172,40.813 -56.571,94.811 -66.41,150.929c-9.569,54.579 -14.795,111.159 -38.892,158.743c-24.951,49.269 -64.519,71.83 -107.312,89.787c-44.255,18.57 -91.913,32.339 -131.523,63.678c-51.226,40.53 -81.555,101.587 -114.558,156.662c-28.836,48.121 -59.675,91.663 -109.788,111.33c-33.324,13.079 -75.105,15.509 -130.323,2.011c-34.159,-8.35 -56.688,-22.4 -71.386,-40.815c-22.259,-27.889 -26.609,-65.465 -27.088,-107.131c-0.832,-72.287 10.019,-156.561 -31.607,-226.643c-35.871,-60.393 -87.803,-80.458 -143.473,-94.372c-53.823,-13.452 -111.2,-20.968 -159.852,-56.308c-42.275,-30.707 -64.947,-75.19 -84.767,-121.576c-20.348,-47.619 -37.707,-97.251 -68.83,-136.982c-33.198,-42.381 -80.782,-56.764 -129.63,-72.895c-58.065,-19.175 -110.041,-35.722 -153.115,-57.785c-42.338,-21.687 -76.002,-48.699 -98.115,-89.139c-7.982,-14.598 -14.458,-30.932 -19.312,-49.367Zm823.657,-276.486c-7.83,29.215 -21.219,52.179 -33.49,75.28c-18.343,34.529 -34.213,69.37 -27.327,124.137c6.373,50.686 19.769,77.229 37.628,92.147c12.123,10.127 26.402,15.017 42.386,18.156c37.144,7.296 84.045,4.715 132.746,46.243c23.713,20.221 38.68,50.405 49.416,84.179c16.519,51.964 22.956,112.389 34.1,159.719c5.093,21.627 11.189,40.577 19.516,54.942c13.33,22.999 32.195,34.831 61.283,28.711c82.399,-17.335 106.935,-70.677 124.612,-137.023c16.744,-62.844 27.199,-137.694 79.109,-202.705c-5.039,1.128 -10.084,2.206 -15.154,3.229c-34.332,47.051 -49.241,98.44 -61.169,146.669c-20.91,84.547 -31.671,159.472 -129.457,180.044c-24.05,5.06 -39.551,-4.925 -50.573,-23.939c-7.908,-13.644 -13.596,-31.679 -18.433,-52.22c-11.197,-47.551 -17.708,-108.25 -34.304,-160.456c-11.34,-35.674 -27.411,-67.401 -52.458,-88.759c-40.59,-34.612 -79.868,-40.117 -113.788,-44.776c-23.841,-3.275 -44.918,-5.903 -61.421,-19.689c-16.554,-13.827 -28.21,-38.738 -34.117,-85.72c-8.241,-65.544 17.986,-101.171 39.821,-143.793c7.348,-14.342 14.256,-29.438 19.365,-46.586c-2.717,-2.648 -5.481,-5.244 -8.291,-7.79Z" style="fill:white;"/>
            <path d="M694.586,1562.34c-139.741,119.176 -218.578,259.823 -248.208,399.944c5.597,23.241 13.902,45.949 25.281,67.745c136.944,262.321 386.253,100.843 508.554,230.462c72.712,77.063 78.214,185.821 111.816,281.842l437.932,0c-85.473,-64.552 -232.781,-111.583 -270.168,-169.68c-71.404,-110.957 27.584,-246.084 -41.569,-352.713c-96.6,-148.952 -287.677,-51.616 -418.897,-124.665c-118.574,-66.008 -39.224,-238.244 -104.741,-332.935Zm2472.47,79.548c100.764,66.495 182.225,66.209 282.85,245.658c-83.094,38.791 -93.658,130.515 -145.607,271.48c-41.68,113.098 -142.04,241.266 -247.607,302.511c-198.503,115.164 -346.321,-64.366 -479.093,26.997c-16.981,11.684 -32.579,30.631 -47.482,53.799l-288.665,0c33.533,-63.091 80.127,-117.396 122.923,-139.896c206.468,-108.548 466.681,56.012 656.473,-111.462c136.095,-120.092 60.893,-280.836 69.395,-433.229c4.584,-82.173 31.495,-158.208 76.813,-215.858Zm-2189.03,-732.057c-5.948,158.426 2.81,334.413 -86.386,473.075c3.261,54.07 16.554,106.342 47.725,156.084c128.631,205.267 347.295,13.554 489.604,132.924c146.243,122.671 26.779,363.007 153.953,492.093c43.105,43.753 98.215,67.055 159.318,71.279c129.253,8.937 224.246,-78.443 349.558,-83.824c126.744,-5.443 225.361,73.789 357.148,53.136c84.986,-13.319 199.986,-50.037 253.273,-123.171c116.032,-159.251 -104.685,-353.744 31.115,-502.183c83.6,-91.38 178.257,-86.293 280.11,-94.324c-79.442,-125.999 -33.638,-297.102 -46.888,-444.432c-69.931,37.826 -131.838,87.943 -168.119,133.04c-44.409,55.199 -66.224,125.179 -105.362,183.983c-45.825,68.851 -125.746,133.337 -154.792,211.159c-52.467,140.575 87.541,341.607 -97.036,425.813c-160.102,73.04 -231.897,-54.209 -380.309,-29.913c-102.963,16.856 -180.737,136.76 -294.64,88.951c-193.76,-81.329 27.187,-406.026 -15.874,-550.035c-4.483,-14.994 -10.445,-29.651 -19.026,-42.784c-81.292,-124.41 -249.475,-26.786 -363.63,-92.139c-154.868,-88.66 -196.552,-436.259 -389.742,-458.732Zm172.112,-408.183l-9.557,33.304c-35.374,464.222 339.086,318.48 567.759,467.946c186.168,121.684 108.622,241.779 222.609,371.445c43.843,49.873 111.658,72.879 176.24,78.146c327.829,26.736 267.215,-363.374 481.295,-480.163c104.509,-57.014 244.995,-8.505 347.883,-50.868c-18.59,-38.35 -47.219,-72.827 -90.825,-101.557c-98.846,-65.123 -182.403,-78.795 -260.718,-71.475c-288.15,244.781 -177.775,679.257 -489.642,568.061c-207.201,-73.877 -70.391,-361.752 -272.724,-492.431c-77.215,-49.871 -260.608,15.857 -310.063,-74.346c-49.556,-90.388 166.285,-277.073 96.962,-379.532c-153.896,-21.092 -332.527,26.254 -459.219,131.47Z" style="fill:url(#_Linear2);"/>
            <path d="M3520.12,2542.33c0,-10.481 -8.509,-18.99 -18.99,-18.99l-3002.25,-0c-10.481,-0 -18.99,8.509 -18.99,18.99c-0,10.481 8.509,18.991 18.99,18.991l3002.25,-0c10.481,-0 18.99,-8.51 18.99,-18.991Z" style="fill:rgb(174,186,232);"/>
        </g>
        <g id="Front">
            <g>
                <g>
                    <path d="M1747.17,1567.55c0,0 28.644,61.249 70.696,76.485l438.191,0c-0,0 48.545,-19.583 59.515,-76.485l-568.402,0Z" style="fill:rgb(104,52,13);"/>
                    <path d="M1921.23,1702l-12.02,216.668c80.584,45.682 161.168,45.682 241.752,-0l-12.02,-216.668l-217.712,-0Z" style="fill:rgb(255,196,205);"/>
                    <path d="M2144.28,1798.19l-5.336,-96.187l-217.712,-0l-5.107,92.057c36.637,28.522 120.253,66.317 228.155,4.13Z" style="fill:rgb(223,108,134);"/>
                    <path d="M1810.42,1519.1c-11.293,-24.902 -47.468,-42.364 -68.426,-20.034c-38.058,40.547 11.796,104.23 68.426,79.278l-0,-59.244Z" style="fill:rgb(216,115,138);"/>
                    <path d="M2262.13,1519.1c11.292,-24.902 47.468,-42.364 68.426,-20.034c38.057,40.547 -11.796,104.23 -68.426,79.278l0,-59.244Z" style="fill:rgb(216,115,138);"/>
                    <path d="M1815.38,1558.61c-0,-0.002 -1.598,-13.624 -12.657,-23.007c-7.155,-6.07 -18.319,-10.589 -35.848,-7.893c-2.728,0.419 -4.602,2.974 -4.182,5.701c0.419,2.728 2.974,4.602 5.701,4.182c13.574,-2.087 22.319,0.935 27.86,5.636c7.983,6.773 9.197,16.573 9.197,16.573c0.329,2.74 2.82,4.697 5.56,4.368c2.74,-0.328 4.698,-2.82 4.369,-5.56Zm0,0c0,0 0,0 0,0Z" style="fill:rgb(166,46,74);"/>
                    <path d="M2274.55,1556.25c-0,0 6.168,-20.189 34.487,-19.332c2.759,0.083 5.066,-2.089 5.149,-4.847c0.084,-2.758 -2.088,-5.065 -4.846,-5.149c-37.089,-1.121 -44.416,26.617 -44.416,26.617c-0.748,2.656 0.801,5.42 3.457,6.168c2.657,0.748 5.421,-0.801 6.169,-3.457Z" style="fill:rgb(166,46,74);"/>
                    <path d="M1838.87,1383.59c-51.968,69.411 -56.562,267.011 25.988,351.089c86.346,87.945 275.231,69.026 343.956,0c61.782,-62.051 91.987,-238.187 33.632,-351.089c-42.278,-81.796 -330.198,-98.006 -403.576,-0Z" style="fill:rgb(255,196,205);"/>
                    <path d="M1856.95,1725.98c-12.811,-45.068 -36.602,-135.043 -35.568,-178.322c0,-0 40.465,-49.041 55.3,-118.979c0,0 76.401,23.556 134.93,0c55.763,-22.443 152.478,11.925 195.882,-13.846c-0,-0 16.502,101.049 56.063,126.481c-0,-0 -2.504,74.809 -14.783,127.076c31.438,-81 37.227,-200.519 -6.335,-284.8c-42.278,-81.796 -330.198,-98.006 -403.576,-0c-50.248,67.114 -56.206,254.07 18.087,342.39Z" style="fill:rgb(235,159,177);"/>
                    <path d="M2217.16,1381.19c-0,0 20.927,125.22 56.57,144.899l0,-19.88c0,-0 26.5,-32.071 60.491,-2.731c0,-0 7.899,-53.381 11.374,-88.043c3.476,-34.662 -18.785,-119.081 -47.856,-129.144c-29.072,-10.063 -80.579,94.899 -80.579,94.899Z" style="fill:rgb(104,52,13);"/>
                    <path d="M2269.77,1299.96c-25.835,26.68 -52.603,81.228 -52.603,81.228c-0,0 4.495,26.901 12.87,57.728c5.103,-11.945 14.492,-30.68 26.672,-40.799c13.791,-11.456 51.069,-53.712 69.977,-75.442c-2.556,-5.828 -5.313,-11.256 -8.239,-16.069c-14.39,-2.135 -33.924,-4.929 -48.677,-6.646Z" style="fill:rgb(91,43,11);"/>
                    <path d="M2338.64,1472.25c-2.421,17.775 -4.411,31.222 -4.411,31.222c-33.991,-29.34 -60.491,2.731 -60.491,2.731l0,19.88c-7.859,-4.339 -15.003,-13.81 -21.368,-25.946c3.994,-10.029 10.878,-22.036 21.368,-24.011c16.4,-3.089 44.715,6.743 64.902,-3.876Z" style="fill:rgb(91,45,11);"/>
                    <path d="M1801.09,1536.38c0,0 58.927,-85.453 54.544,-129.284c0,0 72.091,23.545 128.02,7.526c73.123,-20.944 85.322,-6.528 159.77,-7.526c130.961,-1.755 221.126,-122.551 214.836,-218.291c0,-0 -27.75,18.938 -55.253,30.292c-0,-0 16.738,-38.53 6.177,-132.954c-0,-0 -98.619,83.335 -252.834,90.82c-61.689,2.994 -263.648,-39.247 -286.814,113.378c0,0 -43.682,8.584 -57.898,81.959c-12.664,65.371 17.018,152.88 17.018,152.88c9.601,-47.26 59.74,-38.642 72.434,-18.202c0.37,3.528 0.535,20.292 0,29.402Z" style="fill:rgb(123,66,23);"/>
                    <path d="M2332.74,1290.71c-35.106,62.901 -103.437,115.232 -189.308,116.383c-74.448,0.998 -86.647,-13.418 -159.77,7.526c-55.929,16.019 -128.02,-7.526 -128.02,-7.526c4.383,43.831 -54.544,129.284 -54.544,129.284c0.535,-9.11 0.37,-25.874 0,-29.402c-12.694,-20.44 -62.833,-29.058 -72.434,18.202c-0,-0 -6.765,-19.944 -12.458,-47.904c6.497,-4.388 17.026,-10.011 31.291,-12.866c29.709,-5.946 55.32,6.692 63.195,24.306c0,0 21.702,-51.997 30.021,-110.23c0,-0 85.833,22.377 147.435,7.595c61.601,-14.781 108.441,-1.462 146.849,0c62.658,2.386 144.584,-37.561 197.743,-95.368Z" style="fill:rgb(107,56,20);"/>
                    <path d="M2028.32,1557.08c-0,-0 14.114,36.098 21.363,62.771c1.796,6.608 3.17,12.612 3.749,17.273c0.291,2.342 0.448,4.231 0.139,5.505c-0.9,3.709 -4.335,5.323 -7.764,6.356c-7.1,2.138 -15.138,1.335 -15.138,1.335c-3.296,-0.321 -6.233,2.094 -6.554,5.39c-0.321,3.295 2.093,6.232 5.389,6.554c0,-0 10.493,1.003 19.764,-1.789c7.49,-2.256 14,-6.915 15.965,-15.019c1.195,-4.931 -0.476,-15.898 -3.97,-28.752c-7.39,-27.191 -21.766,-63.993 -21.766,-63.993c-1.206,-3.084 -4.689,-4.609 -7.773,-3.404c-3.084,1.206 -4.61,4.688 -3.404,7.773Z" style="fill:rgb(232,116,142);"/>
                    <path d="M2004.69,1715.41c-0,-0 37.167,8.444 80.505,-6.083c-4.013,26.952 -69.813,52.111 -80.505,6.083Z" style="fill:rgb(235,84,84);"/>
                    <path d="M1883.13,1508.19c-0,-0 17.185,-13.523 39.917,-18.756c14.667,-3.376 31.739,-3.282 47.852,6.754c2.811,1.751 6.515,0.891 8.265,-1.92c1.751,-2.811 0.891,-6.514 -1.92,-8.265c-19.168,-11.939 -39.442,-12.279 -56.889,-8.263c-25.439,5.856 -44.654,21.026 -44.654,21.026c-2.601,2.05 -3.048,5.826 -0.998,8.426c2.05,2.601 5.826,3.048 8.427,0.998Z" style="fill:rgb(219,102,13);"/>
                    <path d="M2199.13,1498.76c0,-0 -19.214,-15.17 -44.654,-21.026c-17.447,-4.016 -37.721,-3.676 -56.888,8.263c-2.811,1.751 -3.672,5.454 -1.921,8.265c1.751,2.811 5.454,3.671 8.265,1.92c16.114,-10.036 33.185,-10.13 47.853,-6.754c22.732,5.233 39.917,18.756 39.917,18.756c2.6,2.05 6.376,1.603 8.426,-0.998c2.05,-2.6 1.603,-6.376 -0.998,-8.426Z" style="fill:rgb(219,102,13);"/>
                    <ellipse cx="1931.45" cy="1541.51" rx="9.976" ry="19.399" style="fill:rgb(35,18,115);"/>
                    <ellipse cx="2143.37" cy="1541.51" rx="9.976" ry="19.399" style="fill:rgb(35,18,115);"/>
                </g>
                <path d="M1911.01,1847.47c0,0 55.285,89.792 109.472,85.097c54.187,-4.696 128.691,-85.097 128.691,-85.097c0,0 278.02,24.7 334.165,71.203c56.146,46.502 171.555,224.075 154.652,359.684c-16.033,128.627 -241.678,248.976 -241.678,248.976l-742.413,0c-0,0 -267.237,-94.326 -275.585,-237.831c-9.023,-155.113 130.071,-336.629 211.596,-370.829c94.197,-39.517 321.1,-71.203 321.1,-71.203Z" style="fill:url(#_Linear3);"/>
                <path d="M1883.39,1845.87c0.004,0.008 19.514,39.032 50.819,69.862c22.912,22.565 52.023,40.199 83.932,39.41c34.767,-0.86 67.737,-18.348 94.49,-39.718c37.863,-30.244 63.028,-67.523 63.028,-67.523c5.564,-8.23 3.399,-19.429 -4.832,-24.993c-8.23,-5.564 -19.429,-3.399 -24.993,4.831l-55.671,59.557c-20.768,16.589 -45.923,31.19 -72.912,31.857c-22.259,0.55 -41.798,-13.329 -57.781,-29.07c-27.03,-26.62 -43.881,-60.313 -43.881,-60.313c-4.443,-8.885 -15.264,-12.492 -24.149,-8.049c-8.886,4.443 -12.493,15.264 -8.05,24.149Zm0,0c0,0 0,0 0,0Z" style="fill:white;"/>
                <path d="M2501.06,2003.54c0.892,-10.67 -2.726,-21.226 -9.975,-29.107c-7.249,-7.88 -17.467,-12.365 -28.175,-12.365c-157.598,0 -716.796,0 -874.394,0c-10.707,0 -20.926,4.485 -28.175,12.365c-7.249,7.881 -10.867,18.437 -9.975,29.107c8.921,106.719 32.55,389.395 40.851,488.7c1.659,19.838 18.244,35.094 38.15,35.094c139.58,0 653.112,0 792.692,0c19.907,0 36.492,-15.256 38.15,-35.094c8.301,-99.305 31.93,-381.981 40.851,-488.7Z" style="fill:rgb(41,53,128);"/>
                <path d="M2049.2,2182.47c-26.222,-19.863 -63.582,-14.708 -83.445,11.514c-19.85,26.204 -14.691,63.595 11.513,83.445c26.205,19.85 63.595,14.691 83.445,-11.514c7.633,-10.076 11.862,-22.318 12.076,-34.957l-59.555,-1.008l35.966,-47.48Z" style="fill:rgb(145,156,225);"/>
            </g>
            <path d="M2995.05,743.328c-0,-19.736 -16.024,-35.76 -35.76,-35.76l-371.002,-0c-19.737,-0 -35.761,16.024 -35.761,35.76l0,286.083c0,19.737 16.024,35.76 35.761,35.76l371.002,0c19.736,0 35.76,-16.023 35.76,-35.76l-0,-286.083Z" style="fill:url(#_Linear4);"/>
            <path d="M2935.01,984.074c-0,-1.174 -0.953,-2.127 -2.127,-2.127l-318.181,0c-1.173,0 -2.126,0.953 -2.126,2.127l-0,17.016c-0,1.174 0.953,2.127 2.126,2.127l318.181,-0c1.174,-0 2.127,-0.953 2.127,-2.127l-0,-17.016Zm-0,-39.09c-0,-1.174 -0.953,-2.127 -2.127,-2.127l-318.181,0c-1.173,0 -2.126,0.953 -2.126,2.127l-0,17.015c-0,1.174 0.953,2.127 2.126,2.127l318.181,0c1.174,0 2.127,-0.953 2.127,-2.127l-0,-17.015Zm-0,-39.09c-0,-1.174 -0.953,-2.127 -2.127,-2.127l-318.181,-0c-1.173,-0 -2.126,0.953 -2.126,2.127l-0,17.015c-0,1.174 0.953,2.127 2.126,2.127l318.181,0c1.174,0 2.127,-0.953 2.127,-2.127l-0,-17.015Zm-0,-42.304c-0,-1.174 -0.953,-2.127 -2.127,-2.127l-318.181,0c-1.173,0 -2.126,0.953 -2.126,2.127l-0,17.016c-0,1.174 0.953,2.127 2.126,2.127l318.181,-0c1.174,-0 2.127,-0.953 2.127,-2.127l-0,-17.016Zm-0,-87.527c-0,-3.61 -2.931,-6.541 -6.541,-6.541l-309.352,0c-3.611,0 -6.541,2.931 -6.541,6.541l-0,52.328c-0,3.61 2.93,6.541 6.541,6.541l309.352,0c3.61,0 6.541,-2.931 6.541,-6.541l-0,-52.328Z" style="fill:rgb(242,243,251);"/>
            <path d="M3112.95,1374.15c0,-25.961 -21.077,-47.038 -47.038,-47.038l-376.307,-0c-25.962,-0 -47.039,21.077 -47.039,47.038l0,509.05c0,25.961 21.077,47.038 47.039,47.038l376.307,0c25.961,0 47.038,-21.077 47.038,-47.038l0,-509.05Z" style="fill:url(#_Linear5);"/>
            <path d="M3039.97,1842.8c-0,-1.057 -0.858,-1.915 -1.915,-1.915l-320.583,-0c-1.057,-0 -1.915,0.858 -1.915,1.915l-0,15.32c-0,1.057 0.858,1.916 1.915,1.916l320.583,-0c1.057,-0 1.915,-0.859 1.915,-1.916l-0,-15.32Zm-0,-43.579c-0,-1.057 -0.858,-1.915 -1.915,-1.915l-320.583,0c-1.057,0 -1.915,0.858 -1.915,1.915l-0,15.321c-0,1.057 0.858,1.915 1.915,1.915l320.583,-0c1.057,-0 1.915,-0.858 1.915,-1.915l-0,-15.321Zm-0,-43.578c-0,-1.057 -0.858,-1.916 -1.915,-1.916l-320.583,0c-1.057,0 -1.915,0.859 -1.915,1.916l-0,15.32c-0,1.057 0.858,1.915 1.915,1.915l320.583,0c1.057,0 1.915,-0.858 1.915,-1.915l-0,-15.32Zm-0,-43.579c-0,-1.057 -0.858,-1.915 -1.915,-1.915l-320.583,-0c-1.057,-0 -1.915,0.858 -1.915,1.915l-0,15.32c-0,1.057 0.858,1.915 1.915,1.915l320.583,0c1.057,0 1.915,-0.858 1.915,-1.915l-0,-15.32Zm-0,-43.579c-0,-1.057 -0.858,-1.915 -1.915,-1.915l-320.583,0c-1.057,0 -1.915,0.858 -1.915,1.915l-0,15.321c-0,1.057 0.858,1.915 1.915,1.915l320.583,-0c1.057,-0 1.915,-0.858 1.915,-1.915l-0,-15.321Zm-0,-43.579c-0,-1.057 -0.858,-1.915 -1.915,-1.915l-320.583,0c-1.057,0 -1.915,0.858 -1.915,1.915l-0,15.321c-0,1.057 0.858,1.915 1.915,1.915l320.583,0c1.057,0 1.915,-0.858 1.915,-1.915l-0,-15.321Zm-0,-43.578c-0,-1.057 -0.858,-1.915 -1.915,-1.915l-320.583,-0c-1.057,-0 -1.915,0.858 -1.915,1.915l-0,15.32c-0,1.057 0.858,1.915 1.915,1.915l320.583,0c1.057,0 1.915,-0.858 1.915,-1.915l-0,-15.32Zm-0,-43.579c-0,-1.057 -0.858,-1.915 -1.915,-1.915l-320.583,-0c-1.057,-0 -1.915,0.858 -1.915,1.915l-0,15.321c-0,1.057 0.858,1.915 1.915,1.915l320.583,-0c1.057,-0 1.915,-0.858 1.915,-1.915l-0,-15.321Zm-0,-43.579c-0,-1.057 -0.858,-1.915 -1.915,-1.915l-320.583,0c-1.057,0 -1.915,0.858 -1.915,1.915l-0,15.321c-0,1.057 0.858,1.915 1.915,1.915l320.583,0c1.057,0 1.915,-0.858 1.915,-1.915l-0,-15.321Zm-0,-91.576c-0,-2.912 -2.364,-5.276 -5.276,-5.276l-313.862,0c-2.911,0 -5.275,2.364 -5.275,5.276l-0,42.204c-0,2.911 2.364,5.275 5.275,5.275l313.862,0c2.912,0 5.276,-2.364 5.276,-5.275l-0,-42.204Z" style="fill:rgb(117,137,183);"/>
            <path d="M1035.34,1800.93c-0,-17.842 -14.486,-32.328 -32.328,-32.328l-377.867,-0c-17.842,-0 -32.328,14.486 -32.328,32.328l0,258.623c0,17.842 14.486,32.328 32.328,32.328l377.867,-0c17.842,-0 32.328,-14.486 32.328,-32.328l-0,-258.623Z" style="fill:url(#_Linear6);"/>
            <path d="M740.588,1953.28c2.057,3.871 4.415,6.713 7.077,8.528c2.661,1.814 5.262,2.721 7.802,2.721c2.056,0 3.901,-0.272 5.534,-0.816c1.633,-0.544 2.994,-1.542 4.082,-2.994c1.089,-1.452 1.936,-3.387 2.541,-5.806c0.604,-2.419 0.907,-5.504 0.907,-9.254l-0,-74.392l31.208,-0l0,76.932c0,5.928 -0.816,11.492 -2.449,16.693c-1.633,5.202 -4.083,9.768 -7.349,13.699c-3.266,3.932 -7.409,7.046 -12.429,9.345c-5.02,2.298 -10.917,3.447 -17.691,3.447c-9.677,0 -17.721,-1.814 -24.132,-5.443c-6.411,-3.629 -11.794,-9.254 -16.148,-16.874l21.047,-15.786Zm95.077,-0.182c4.234,3.387 8.801,6.139 13.7,8.256c4.899,2.117 9.525,3.175 13.88,3.175c4.718,0 8.135,-0.725 10.252,-2.177c2.117,-1.452 3.175,-3.508 3.175,-6.169c-0,-1.452 -0.363,-2.661 -1.089,-3.629c-0.725,-0.968 -1.784,-1.875 -3.175,-2.722c-1.391,-0.846 -3.054,-1.663 -4.99,-2.449c-1.935,-0.786 -4.173,-1.663 -6.713,-2.631l-14.697,-6.169c-3.145,-1.21 -6.169,-2.813 -9.072,-4.809c-2.904,-1.995 -5.444,-4.354 -7.621,-7.076c-2.177,-2.722 -3.901,-5.836 -5.171,-9.344c-1.27,-3.508 -1.905,-7.379 -1.905,-11.613c-0,-5.08 1.088,-9.828 3.266,-14.243c2.177,-4.415 5.201,-8.286 9.072,-11.613c3.871,-3.326 8.497,-5.957 13.88,-7.892c5.383,-1.936 11.28,-2.904 17.691,-2.904c6.774,0 13.639,1.271 20.594,3.811c6.956,2.54 13.155,6.532 18.598,11.975l-15.604,19.596c-3.992,-2.782 -7.832,-4.899 -11.522,-6.35c-3.689,-1.452 -7.711,-2.178 -12.066,-2.178c-3.871,0 -6.895,0.666 -9.072,1.996c-2.177,1.331 -3.266,3.327 -3.266,5.988c-0,2.782 1.542,4.929 4.627,6.441c3.084,1.512 7.348,3.296 12.792,5.353l14.334,5.625c7.379,2.903 13.064,6.955 17.056,12.156c3.991,5.202 5.987,11.915 5.987,20.141c0,4.959 -1.028,9.737 -3.084,14.334c-2.057,4.596 -5.051,8.618 -8.982,12.066c-3.931,3.447 -8.739,6.199 -14.425,8.256c-5.685,2.056 -12.217,3.084 -19.596,3.084c-7.499,0 -15.211,-1.361 -23.134,-4.082c-7.923,-2.722 -15.09,-6.986 -21.501,-12.792l17.781,-21.411Z" style="fill:white;fill-rule:nonzero;"/>
            <path d="M1403.67,859.7c0,-17.816 -14.464,-32.281 -32.281,-32.281l-466.542,-0c-17.817,-0 -32.281,14.465 -32.281,32.281l-0,258.248c-0,17.816 14.464,32.281 32.281,32.281l466.542,-0c17.817,-0 32.281,-14.465 32.281,-32.281l0,-258.248Z" style="fill:url(#_Linear7);"/>
            <path d="M950.501,938.844l26.451,-0l-0,37.216l29.834,-0l-0,-37.216l26.451,-0l-0,99.96l-26.451,-0l-0,-39.677l-29.834,0l-0,39.677l-26.451,-0l-0,-99.96Zm310.953,-0l26.451,-0l-0,77.815l37.831,-0l-0,22.145l-64.282,-0l-0,-99.96Zm-187.003,22.145l-26.451,-0l0,-22.145l79.353,-0l0,22.145l-26.451,-0l0,77.815l-26.451,-0l0,-77.815Zm67.666,-22.145l27.373,-0l15.686,41.522l5.537,16.301l0.615,-0l5.536,-16.301l15.071,-41.522l27.374,-0l-0,99.96l-24.606,-0l-0,-29.527c-0,-2.563 0.128,-5.382 0.384,-8.458c0.257,-3.076 0.539,-6.228 0.846,-9.458c0.308,-3.229 0.667,-6.382 1.077,-9.458c0.41,-3.075 0.769,-5.843 1.076,-8.304l-0.615,0l-8.304,23.375l-13.841,33.679l-9.842,0l-13.841,-33.679l-7.997,-23.375l-0.615,0c0.308,2.461 0.667,5.229 1.077,8.304c0.41,3.076 0.769,6.229 1.076,9.458c0.308,3.23 0.59,6.382 0.846,9.458c0.256,3.076 0.385,5.895 0.385,8.458l-0,29.527l-24.298,-0l-0,-99.96Z" style="fill:rgb(248,251,255);fill-rule:nonzero;"/>
            <path d="M2217.34,748.071c-0,-13.166 -10.689,-23.855 -23.855,-23.855l-319.675,0c-13.166,0 -23.855,10.689 -23.855,23.855l0,190.841c0,13.166 10.689,23.855 23.855,23.855l319.675,-0c13.166,-0 23.855,-10.689 23.855,-23.855l-0,-190.841Z" style="fill:url(#_Linear8);"/>
            <path d="M1929.52,844.139c0,-7.08 1.123,-13.361 3.367,-18.843c2.245,-5.483 5.267,-10.102 9.066,-13.857c3.799,-3.756 8.18,-6.627 13.145,-8.613c4.964,-1.985 10.166,-2.978 15.605,-2.978c5.353,-0 10.21,1.101 14.57,3.302c4.36,2.202 8.051,4.813 11.073,7.835l-12.174,13.728c-2.072,-1.813 -4.101,-3.216 -6.087,-4.209c-1.986,-0.993 -4.36,-1.489 -7.123,-1.489c-2.503,-0 -4.899,0.561 -7.187,1.683c-2.288,1.123 -4.274,2.72 -5.958,4.792c-1.683,2.072 -3.021,4.619 -4.014,7.641c-0.993,3.022 -1.49,6.432 -1.49,10.231c0,7.943 1.662,14.03 4.986,18.26c3.324,4.231 7.706,6.346 13.145,6.346c3.281,0 6.109,-0.626 8.483,-1.878c2.374,-1.252 4.468,-2.87 6.281,-4.856l12.174,13.468c-3.627,4.145 -7.771,7.253 -12.433,9.325c-4.662,2.072 -9.583,3.108 -14.764,3.108c-5.525,0 -10.749,-0.885 -15.67,-2.655c-4.921,-1.77 -9.238,-4.446 -12.951,-8.029c-3.712,-3.583 -6.648,-8.073 -8.806,-13.469c-2.158,-5.396 -3.238,-11.677 -3.238,-18.843Zm153.595,15.67c3.022,2.418 6.281,4.382 9.778,5.893c3.496,1.511 6.799,2.266 9.907,2.266c3.367,0 5.806,-0.518 7.317,-1.554c1.511,-1.036 2.266,-2.504 2.266,-4.403c0,-1.036 -0.259,-1.9 -0.777,-2.59c-0.518,-0.691 -1.273,-1.339 -2.266,-1.943c-0.993,-0.604 -2.18,-1.187 -3.561,-1.748c-1.382,-0.561 -2.979,-1.187 -4.792,-1.878l-10.49,-4.403c-2.245,-0.864 -4.403,-2.008 -6.476,-3.432c-2.072,-1.425 -3.885,-3.108 -5.439,-5.051c-1.554,-1.943 -2.784,-4.166 -3.691,-6.67c-0.906,-2.503 -1.36,-5.266 -1.36,-8.288c0,-3.626 0.778,-7.015 2.332,-10.166c1.554,-3.152 3.712,-5.914 6.475,-8.289c2.763,-2.374 6.065,-4.252 9.907,-5.633c3.842,-1.382 8.051,-2.072 12.627,-2.072c4.835,-0 9.735,0.906 14.699,2.719c4.964,1.813 9.389,4.663 13.274,8.548l-11.137,13.986c-2.849,-1.985 -5.59,-3.496 -8.224,-4.532c-2.633,-1.036 -5.504,-1.554 -8.612,-1.554c-2.763,-0 -4.921,0.475 -6.475,1.424c-1.554,0.95 -2.331,2.375 -2.331,4.274c-0,1.986 1.1,3.518 3.302,4.597c2.202,1.08 5.245,2.353 9.13,3.821l10.231,4.015c5.267,2.072 9.325,4.964 12.174,8.676c2.849,3.713 4.274,8.505 4.274,14.376c-0,3.54 -0.734,6.95 -2.202,10.231c-1.468,3.281 -3.605,6.151 -6.411,8.612c-2.806,2.461 -6.238,4.425 -10.295,5.892c-4.058,1.468 -8.72,2.202 -13.987,2.202c-5.353,0 -10.857,-0.971 -16.512,-2.914c-5.655,-1.942 -10.771,-4.986 -15.347,-9.13l12.692,-15.282Zm-70.452,0c3.022,2.418 6.281,4.382 9.778,5.893c3.497,1.511 6.799,2.266 9.907,2.266c3.368,0 5.807,-0.518 7.318,-1.554c1.51,-1.036 2.266,-2.504 2.266,-4.403c-0,-1.036 -0.259,-1.9 -0.777,-2.59c-0.518,-0.691 -1.274,-1.339 -2.267,-1.943c-0.992,-0.604 -2.18,-1.187 -3.561,-1.748c-1.381,-0.561 -2.979,-1.187 -4.792,-1.878l-10.49,-4.403c-2.244,-0.864 -4.403,-2.008 -6.475,-3.432c-2.072,-1.425 -3.885,-3.108 -5.439,-5.051c-1.554,-1.943 -2.785,-4.166 -3.691,-6.67c-0.907,-2.503 -1.36,-5.266 -1.36,-8.288c-0,-3.626 0.777,-7.015 2.331,-10.166c1.554,-3.152 3.713,-5.914 6.475,-8.289c2.763,-2.374 6.066,-4.252 9.908,-5.633c3.842,-1.382 8.051,-2.072 12.627,-2.072c4.834,-0 9.734,0.906 14.699,2.719c4.964,1.813 9.389,4.663 13.274,8.548l-11.138,13.986c-2.849,-1.985 -5.59,-3.496 -8.223,-4.532c-2.634,-1.036 -5.504,-1.554 -8.612,-1.554c-2.763,-0 -4.922,0.475 -6.476,1.424c-1.554,0.95 -2.331,2.375 -2.331,4.274c0,1.986 1.101,3.518 3.302,4.597c2.202,1.08 5.246,2.353 9.131,3.821l10.231,4.015c5.266,2.072 9.324,4.964 12.173,8.676c2.849,3.713 4.274,8.505 4.274,14.376c0,3.54 -0.734,6.95 -2.202,10.231c-1.467,3.281 -3.604,6.151 -6.41,8.612c-2.806,2.461 -6.238,4.425 -10.296,5.892c-4.058,1.468 -8.72,2.202 -13.987,2.202c-5.353,0 -10.857,-0.971 -16.512,-2.914c-5.655,-1.942 -10.77,-4.986 -15.346,-9.13l12.691,-15.282Z" style="fill:white;fill-rule:nonzero;"/>
            <path d="M3358.8,2072.03c-0,-10.612 -8.616,-19.228 -19.228,-19.228l-355.682,0c-10.612,0 -19.228,8.616 -19.228,19.228l0,153.819c0,10.612 8.616,19.227 19.228,19.227l355.682,0c10.612,0 19.228,-8.615 19.228,-19.227l-0,-153.819Z" style="fill:url(#_Linear9);"/>
            <path d="M3038.93,2149.45c0,-5.641 0.895,-10.646 2.683,-15.014c1.789,-4.369 4.197,-8.049 7.224,-11.042c3.027,-2.992 6.518,-5.28 10.474,-6.862c3.956,-1.582 8.1,-2.373 12.435,-2.373c4.265,-0 8.135,0.877 11.609,2.631c3.474,1.754 6.415,3.835 8.823,6.243l-9.7,10.938c-1.652,-1.444 -3.268,-2.562 -4.85,-3.353c-1.583,-0.791 -3.475,-1.187 -5.676,-1.187c-1.995,0 -3.904,0.447 -5.727,1.342c-1.823,0.894 -3.406,2.167 -4.747,3.818c-1.342,1.651 -2.408,3.68 -3.199,6.088c-0.791,2.408 -1.187,5.125 -1.187,8.152c0,6.329 1.325,11.179 3.973,14.55c2.649,3.371 6.14,5.057 10.474,5.057c2.614,-0 4.867,-0.499 6.759,-1.497c1.892,-0.997 3.56,-2.287 5.005,-3.869l9.7,10.732c-2.889,3.302 -6.191,5.778 -9.906,7.429c-3.715,1.652 -7.637,2.477 -11.764,2.477c-4.403,0 -8.565,-0.705 -12.486,-2.115c-3.922,-1.411 -7.361,-3.543 -10.32,-6.398c-2.958,-2.855 -5.297,-6.433 -7.017,-10.732c-1.72,-4.3 -2.58,-9.305 -2.58,-15.015Zm87.507,34.26c-4.678,0 -8.926,-0.791 -12.744,-2.373c-3.818,-1.583 -7.086,-3.87 -9.803,-6.863c-2.718,-2.992 -4.833,-6.673 -6.346,-11.041c-1.514,-4.369 -2.271,-9.305 -2.271,-14.808c0,-5.504 0.757,-10.405 2.271,-14.705c1.513,-4.3 3.628,-7.912 6.346,-10.835c2.717,-2.924 5.985,-5.143 9.803,-6.656c3.818,-1.514 8.066,-2.27 12.744,-2.27c4.61,-0 8.84,0.756 12.693,2.27c3.852,1.513 7.137,3.749 9.855,6.707c2.717,2.958 4.833,6.57 6.346,10.835c1.514,4.266 2.27,9.15 2.27,14.654c0,5.503 -0.756,10.439 -2.27,14.808c-1.513,4.368 -3.629,8.049 -6.346,11.041c-2.718,2.993 -6.003,5.28 -9.855,6.863c-3.853,1.582 -8.083,2.373 -12.693,2.373Zm109.384,-68.313l43.341,-0l-0,14.86l-25.592,-0l-0,10.525l21.877,0l-0,14.86l-21.877,-0l-0,11.97l26.624,0l-0,14.86l-44.373,-0l-0,-67.075Zm-66.249,-0l19.813,-0c5.09,-0 9.751,0.619 13.982,1.857c4.231,1.239 7.86,3.199 10.887,5.882c3.027,2.683 5.383,6.123 7.068,10.32c1.686,4.196 2.529,9.252 2.529,15.169c-0,5.916 -0.826,11.007 -2.477,15.272c-1.651,4.265 -3.973,7.774 -6.965,10.526c-2.993,2.752 -6.536,4.781 -10.629,6.088c-4.093,1.307 -8.548,1.961 -13.364,1.961l-20.844,-0l-0,-67.075Zm-43.135,53.041c4.059,-0 7.241,-1.772 9.546,-5.315c2.304,-3.543 3.457,-8.376 3.457,-14.498c-0,-6.123 -1.153,-10.853 -3.457,-14.189c-2.305,-3.337 -5.487,-5.005 -9.546,-5.005c-4.059,0 -7.24,1.668 -9.545,5.005c-2.305,3.336 -3.457,8.066 -3.457,14.189c0,6.122 1.152,10.955 3.457,14.498c2.305,3.543 5.486,5.315 9.545,5.315Zm61.916,-0.207c2.407,0 4.678,-0.292 6.81,-0.877c2.133,-0.585 3.973,-1.599 5.521,-3.044c1.548,-1.445 2.769,-3.44 3.663,-5.985c0.895,-2.546 1.342,-5.779 1.342,-9.7c-0,-3.922 -0.447,-7.12 -1.342,-9.597c-0.894,-2.477 -2.115,-4.403 -3.663,-5.779c-1.548,-1.376 -3.388,-2.322 -5.521,-2.838c-2.132,-0.516 -4.403,-0.774 -6.81,-0.774l-1.032,0l-0,38.594l1.032,0Z" style="fill:white;fill-rule:nonzero;"/>
            <g>
                <path d="M1398.75,1745.45c-46.059,-56.779 -84.639,-250.211 64.17,-245.356c140.345,4.578 105.103,188.039 41.052,245.356l-105.222,-0Z" style="fill:rgb(255,218,124);"/>
                <path d="M1462.28,1640.86c-4.41,0.556 -8.974,0.793 -13.527,0.65c-1.342,-0.042 -2.666,-0.128 -3.967,-0.258c-0.582,-6.475 -1.481,-12.267 -2.747,-17.118c-2.404,-9.206 -6.411,-15.322 -11.262,-17.747c-3.859,-1.928 -8.452,-2.044 -13.831,0.703c-7.434,3.797 -10.927,8.784 -11.828,13.732c-0.93,5.105 0.85,10.558 5.179,15.461c5.129,5.808 14.114,10.969 25.155,13.536c1.624,31.358 -0.429,74.106 -5.989,103.645c-0.51,2.712 1.277,5.328 3.989,5.838c2.712,0.511 5.328,-1.277 5.839,-3.989c5.559,-29.536 7.441,-71.818 6.141,-103.97c0.993,0.076 1.996,0.131 3.008,0.162c4.11,0.129 8.218,-0.035 12.243,-0.453c-4.674,35.165 -0.485,81.144 2.135,103.908c0.316,2.742 2.798,4.711 5.539,4.396c2.742,-0.316 4.711,-2.798 4.396,-5.539c-2.633,-22.873 -6.961,-70.063 -1.837,-104.386c13.83,-2.97 25.591,-8.751 31.33,-15.294c3.851,-4.39 5.359,-9.193 4.4,-13.916c-0.876,-4.309 -3.966,-8.875 -10.49,-12.926c-5.782,-3.59 -10.899,-3.931 -15.329,-2.205c-5.743,2.238 -10.724,8.754 -14.209,18.648c-1.73,4.913 -3.165,10.716 -4.338,17.122Zm-27.679,-1.555c-0.536,-4.694 -1.274,-8.952 -2.238,-12.645c-0.836,-3.202 -1.834,-5.933 -3.074,-8.063c-0.972,-1.669 -1.99,-2.953 -3.375,-3.43c-1.278,-0.44 -2.718,-0.04 -4.42,0.829c-3.815,1.949 -6.075,4.077 -6.538,6.617c-0.433,2.38 0.82,4.766 2.838,7.052c3.564,4.036 9.504,7.511 16.807,9.64Zm38.213,-0.447c9.683,-2.497 17.726,-6.54 21.914,-11.315c1.514,-1.725 2.495,-3.474 2.118,-5.33c-0.461,-2.269 -2.53,-4.29 -5.965,-6.422c-1.946,-1.209 -3.665,-1.836 -5.265,-1.667c-1.737,0.183 -3.155,1.341 -4.493,2.981c-1.977,2.423 -3.622,5.836 -5.073,9.955c-1.233,3.501 -2.307,7.47 -3.236,11.798Z" style="fill:rgb(202,148,13);"/>
                <path d="M1427.76,1817.85l0,1.31c0,6.257 2.486,12.257 6.91,16.681c4.424,4.424 10.424,6.909 16.68,6.909l0.002,0c6.256,0 12.257,-2.485 16.681,-6.909c4.424,-4.424 6.909,-10.424 6.909,-16.681l-0,-1.31l11.192,-0c9.845,-0 17.825,-7.981 17.825,-17.825c0,-21.438 0,-54.574 0,-54.574l-105.216,-0l-0,54.574c-0,9.844 7.98,17.825 17.825,17.825l11.192,-0Z" style="fill:rgb(19,26,112);"/>
            </g>
            <path d="M1120.95,1524.27l36.162,0l70.612,-228.741l-36.161,-0l-70.613,228.741Zm-4.521,-172.132l-105.491,44.194l0,37.395l105.491,44.194l-0,-35.452l-68.259,-27.44l68.259,-27.439l-0,-35.452Zm113.676,-0l0,35.452l68.259,27.439l-68.259,27.44l0,35.452l105.491,-44.194l-0,-37.395l-105.491,-44.194Z" style="fill:rgb(98,104,178);fill-rule:nonzero;"/>
            <g>
                <path d="M1389.9,702.512c15.45,3.361 31.217,5.056 47.029,5.056c122.117,-0 221.261,-99.144 221.261,-221.261c-0,-58.683 -23.312,-114.961 -64.806,-156.456l-95.928,95.928c16.053,16.053 25.071,37.825 25.071,60.528c0,47.243 -38.355,85.598 -85.598,85.598c-6.117,0 -12.217,-0.656 -18.194,-1.956l-28.835,132.563Z" style="fill:url(#_Linear10);"/>
                <path d="M1221.85,434.372c-4.107,17.006 -6.182,34.44 -6.182,51.935c0,113.167 85.394,208.094 197.931,220.027l14.336,-135.204c-43.384,-4.601 -76.304,-41.196 -76.304,-84.823c0,-6.745 0.8,-13.466 2.383,-20.022l-132.164,-31.913Z" style="fill:url(#_Linear11);"/>
                <path d="M1593.39,329.851c-41.495,-41.494 -97.773,-64.806 -156.455,-64.806c-122.2,0 -221.262,99.062 -221.262,221.262l136.077,-0c0,-47.046 38.139,-85.185 85.185,-85.185c22.592,0 44.259,8.975 60.234,24.95l96.221,-96.221Z" style="fill:url(#_Linear12);"/>
            </g>
        </g>
    </g>
    <defs>
        <linearGradient id="_Linear1" x1="0" y1="0" x2="1" y2="0" gradientUnits="userSpaceOnUse" gradientTransform="matrix(8.86531e-14,1447.81,-1447.81,8.86531e-14,1814.94,1006.68)"><stop offset="0" style="stop-color:rgb(204,221,255);stop-opacity:1"/><stop offset="1" style="stop-color:rgb(244,246,254);stop-opacity:1"/></linearGradient>
        <linearGradient id="_Linear2" x1="0" y1="0" x2="1" y2="0" gradientUnits="userSpaceOnUse" gradientTransform="matrix(9.44395e-14,1542.31,-1500.37,9.18709e-14,1791.06,912.179)"><stop offset="0" style="stop-color:rgb(181,205,249);stop-opacity:1"/><stop offset="1" style="stop-color:rgb(231,235,255);stop-opacity:1"/></linearGradient>
        <linearGradient id="_Linear3" x1="0" y1="0" x2="1" y2="0" gradientUnits="userSpaceOnUse" gradientTransform="matrix(3.69224e-14,602.989,-319.554,1.9567e-14,2034.37,1887.5)"><stop offset="0" style="stop-color:rgb(104,154,229);stop-opacity:1"/><stop offset="0.56" style="stop-color:rgb(79,111,220);stop-opacity:1"/><stop offset="1" style="stop-color:rgb(69,93,216);stop-opacity:1"/></linearGradient>
        <linearGradient id="_Linear4" x1="0" y1="0" x2="1" y2="0" gradientUnits="userSpaceOnUse" gradientTransform="matrix(1.68374e-14,274.975,-274.975,1.68374e-14,2951.15,728.241)"><stop offset="0" style="stop-color:rgb(84,96,196);stop-opacity:1"/><stop offset="1" style="stop-color:rgb(47,57,137);stop-opacity:1"/></linearGradient>
        <linearGradient id="_Linear5" x1="0" y1="0" x2="1" y2="0" gradientUnits="userSpaceOnUse" gradientTransform="matrix(2.58443e-14,422.07,-422.07,2.58443e-14,3076.57,1437.96)"><stop offset="0" style="stop-color:rgb(243,248,255);stop-opacity:1"/><stop offset="1" style="stop-color:white;stop-opacity:1"/></linearGradient>
        <linearGradient id="_Linear6" x1="0" y1="0" x2="1" y2="0" gradientUnits="userSpaceOnUse" gradientTransform="matrix(1.64555e-14,268.738,-268.738,1.64555e-14,859.362,1788.81)"><stop offset="0" style="stop-color:rgb(97,229,212);stop-opacity:1"/><stop offset="1" style="stop-color:rgb(57,168,209);stop-opacity:1"/></linearGradient>
        <linearGradient id="_Linear7" x1="0" y1="0" x2="1" y2="0" gradientUnits="userSpaceOnUse" gradientTransform="matrix(1.46794e-14,239.733,-239.733,1.46794e-14,1138.12,875.761)"><stop offset="0" style="stop-color:rgb(123,173,252);stop-opacity:1"/><stop offset="1" style="stop-color:rgb(80,96,234);stop-opacity:1"/></linearGradient>
        <linearGradient id="_Linear8" x1="0" y1="0" x2="1" y2="0" gradientUnits="userSpaceOnUse" gradientTransform="matrix(1.05763e-14,172.725,-172.725,1.05763e-14,2032.35,753.611)"><stop offset="0" style="stop-color:rgb(253,142,117);stop-opacity:1"/><stop offset="1" style="stop-color:rgb(228,103,110);stop-opacity:1"/></linearGradient>
        <linearGradient id="_Linear9" x1="0" y1="0" x2="1" y2="0" gradientUnits="userSpaceOnUse" gradientTransform="matrix(1.0422e-14,170.204,-170.204,1.0422e-14,3312.85,2057.73)"><stop offset="0" style="stop-color:rgb(246,214,85);stop-opacity:1"/><stop offset="1" style="stop-color:rgb(238,166,79);stop-opacity:1"/></linearGradient>
        <linearGradient id="_Linear10" x1="0" y1="0" x2="1" y2="0" gradientUnits="userSpaceOnUse" gradientTransform="matrix(1.61843e-14,264.31,-171.622,1.05088e-14,1435.37,375.676)"><stop offset="0" style="stop-color:rgb(253,142,117);stop-opacity:1"/><stop offset="1" style="stop-color:rgb(228,91,99);stop-opacity:1"/></linearGradient>
        <linearGradient id="_Linear11" x1="0" y1="0" x2="1" y2="0" gradientUnits="userSpaceOnUse" gradientTransform="matrix(1.13767e-14,185.796,-135.731,8.3111e-15,1482.22,465.117)"><stop offset="0" style="stop-color:rgb(97,229,212);stop-opacity:1"/><stop offset="1" style="stop-color:rgb(57,168,209);stop-opacity:1"/></linearGradient>
        <linearGradient id="_Linear12" x1="0" y1="0" x2="1" y2="0" gradientUnits="userSpaceOnUse" gradientTransform="matrix(1.09111e-14,178.191,-86.9278,5.32279e-15,1593.39,308.116)"><stop offset="0" style="stop-color:rgb(246,214,85);stop-opacity:1"/><stop offset="1" style="stop-color:rgb(238,166,79);stop-opacity:1"/></linearGradient>
    </defs>
</svg>
